<svg width="480" height="300" viewBox="0 0 480 300" fill="none" xmlns="http://www.w3.org/2000/svg">
<rect width="480" height="300" fill="#481449"/>
<g clip-path="url(#clip0_594_732)">
<path d="M252.817 183.219C253.325 182.676 253.938 182.247 254.62 181.961C255.295 181.661 256.024 181.506 256.762 181.504C257.744 181.508 258.709 181.779 259.553 182.288C260.398 182.797 261.093 183.527 261.566 184.401C262.432 184.016 263.366 183.814 264.31 183.807C266.114 183.807 267.843 184.535 269.118 185.828C270.393 187.122 271.11 188.877 271.11 190.706C271.11 192.536 270.393 194.29 269.118 195.584C267.843 196.878 266.114 197.605 264.31 197.605C263.867 197.611 263.424 197.56 262.994 197.45C262.385 198.564 261.378 199.398 260.179 199.777C258.973 200.147 257.674 200.052 256.533 199.51C256.101 200.567 255.351 201.461 254.391 202.063C253.442 202.688 252.327 203.007 251.196 202.977C250.073 202.966 248.98 202.601 248.071 201.932C247.156 201.269 246.46 200.34 246.075 199.267C245.718 199.344 245.353 199.382 244.987 199.379C244.068 199.363 243.169 199.105 242.379 198.63C241.588 198.156 240.932 197.481 240.476 196.671C240.019 195.862 239.779 194.946 239.777 194.013C239.775 193.081 240.012 192.164 240.464 191.353C240.923 190.545 241.586 189.875 242.384 189.411C241.797 188.035 241.731 186.488 242.196 185.065C242.665 183.649 243.62 182.452 244.888 181.694C246.165 180.928 247.676 180.67 249.13 180.969C250.594 181.223 251.91 182.027 252.817 183.219Z" fill="#00B3FF"/>
<path d="M181.165 153.912L185.047 144.885C189.233 148.005 194.796 149.634 200.276 149.634C204.324 149.634 206.885 148.061 206.885 145.686C206.83 139.061 182.597 144.251 182.404 127.605C182.349 119.158 189.839 112.643 200.441 112.643C206.747 112.643 213.053 114.216 217.542 117.778L213.908 126.97C209.777 124.347 204.655 122.47 199.808 122.47C196.503 122.47 194.3 124.043 194.3 126.031C194.355 132.546 218.781 128.985 219.029 144.885C219.029 153.526 211.732 159.599 201.24 159.599C193.585 159.599 186.535 157.804 181.165 153.912Z" fill="white"/>
<path d="M329.705 141.655C327.778 145.023 324.142 147.342 319.956 147.342C313.788 147.342 308.776 142.346 308.776 136.135C308.776 129.923 313.76 124.927 319.956 124.927C324.142 124.927 327.75 127.246 329.705 130.614L340.39 124.679C336.397 117.529 328.714 112.67 319.957 112.67C307.042 112.67 296.55 123.188 296.55 136.135C296.55 149.081 307.042 159.599 319.957 159.599C328.77 159.599 336.37 154.768 340.39 147.591L329.705 141.655Z" fill="white"/>
<path d="M237.782 93.1807H224.427V158.715H237.782V93.1807Z" fill="white"/>
<path d="M345.65 93.1807V158.743H359.005V139.088L374.867 158.743H391.969L371.811 135.389L390.481 113.609H374.124L359.005 131.69V93.1807H345.65Z" fill="white"/>
<path d="M277.52 141.766C275.593 144.968 271.599 147.342 267.083 147.342C260.915 147.342 255.903 142.346 255.903 136.135C255.903 129.923 260.887 124.927 267.083 124.927C271.572 124.927 275.565 127.44 277.52 130.696V141.766ZM277.52 113.609V118.937C275.345 115.238 269.892 112.67 264.22 112.67C252.489 112.67 243.236 123.05 243.236 136.08C243.236 149.109 252.489 159.627 264.22 159.627C269.893 159.627 275.345 157.059 277.52 153.361V158.688H290.876V113.609H277.52Z" fill="white"/>
<path d="M98.5503 141.71C98.5503 146.292 94.8605 149.964 90.3167 149.964C85.7729 149.964 82.0552 146.265 82.0552 141.71C82.0552 137.155 85.745 133.457 90.2888 133.457H98.5224V141.71H98.5503Z" fill="#E3066A"/>
<path d="M102.654 141.71C102.654 137.128 106.344 133.457 110.887 133.457C115.431 133.457 119.121 137.155 119.121 141.71V162.359C119.121 166.941 115.431 170.613 110.887 170.613C106.344 170.613 102.654 166.941 102.654 162.359V141.71Z" fill="#E3066A"/>
<path d="M110.915 108.53C106.344 108.53 102.682 104.831 102.682 100.276C102.682 95.721 106.371 92.0215 110.915 92.0215C115.459 92.0215 119.149 95.7202 119.149 100.275V108.529H110.915V108.53Z" fill="#1AB9FF"/>
<path d="M110.915 112.725C115.486 112.725 119.149 116.424 119.149 120.979C119.149 125.534 115.459 129.233 110.915 129.233H90.2336C85.6627 129.233 82 125.534 82 120.979C82 116.424 85.6898 112.725 90.2336 112.725H110.914H110.915Z" fill="#1AB9FF"/>
<path d="M143.933 120.979C143.933 116.397 147.623 112.725 152.167 112.725C156.711 112.725 160.4 116.424 160.4 120.979C160.4 125.534 156.711 129.233 152.167 129.233H143.933V120.979Z" fill="#41B658"/>
<path d="M139.83 120.979C139.83 125.561 136.14 129.233 131.596 129.233C127.052 129.233 123.362 125.534 123.362 120.979V100.275C123.362 95.693 127.052 92.0215 131.596 92.0215C136.14 92.0215 139.83 95.693 139.83 100.275V120.979Z" fill="#41B658"/>
<path d="M131.568 154.105C136.139 154.105 139.802 157.804 139.802 162.359C139.802 166.914 136.112 170.613 131.568 170.613C127.024 170.613 123.334 166.914 123.334 162.359V154.105H131.568Z" fill="#FCC003"/>
<path d="M131.568 149.965C126.997 149.965 123.334 146.266 123.334 141.711C123.334 137.156 127.024 133.457 131.568 133.457H152.249C156.82 133.457 160.483 137.156 160.483 141.711C160.483 146.266 156.793 149.965 152.249 149.965H131.568Z" fill="#FCC003"/>
<path d="M189.941 182.944L189.463 184.483C188.926 184.366 188.405 184.315 187.902 184.332C186.325 184.349 185.536 185.214 185.536 186.93V187.99H188.758V189.63H185.536V200.832H183.397V189.63H181.157V188.268L183.397 187.991V186.881C183.397 185.518 183.758 184.472 184.48 183.74C185.201 183.008 186.276 182.634 187.702 182.617C188.524 182.617 189.27 182.727 189.941 182.945L189.941 182.944Z" fill="white"/>
<path d="M191.099 190.866C191.099 189.925 191.04 188.966 190.922 187.99H192.961C193.045 188.562 193.103 189.243 193.137 190.033H193.188C193.926 188.436 195.268 187.637 197.215 187.637C197.349 187.637 197.592 187.662 197.945 187.713L197.819 189.555C197.651 189.521 197.392 189.504 197.039 189.504C195.814 189.504 194.874 189.917 194.22 190.74C193.566 191.565 193.239 192.633 193.239 193.944V200.832H191.1V190.866H191.099Z" fill="white"/>
<path d="M211.585 194.373C211.585 195.702 211.329 196.883 210.817 197.918C210.306 198.952 209.568 199.755 208.603 200.327C207.638 200.899 206.484 201.185 205.143 201.185C203.817 201.185 202.667 200.895 201.695 200.315C200.721 199.734 199.983 198.932 199.48 197.905C198.976 196.88 198.725 195.702 198.725 194.373C198.725 192.321 199.287 190.686 200.411 189.466C201.535 188.246 203.112 187.637 205.144 187.637C206.502 187.637 207.664 187.919 208.629 188.482C209.594 189.046 210.328 189.831 210.831 190.84C211.334 191.85 211.585 193.027 211.585 194.373ZM200.939 194.373C200.939 195.904 201.287 197.136 201.984 198.069C202.681 199.002 203.734 199.47 205.143 199.47C206.568 199.47 207.634 199.003 208.339 198.069C209.043 197.136 209.396 195.904 209.396 194.373C209.396 192.842 209.043 191.623 208.339 190.715C207.634 189.806 206.568 189.352 205.143 189.352C203.718 189.352 202.659 189.806 201.972 190.715C201.283 191.623 200.939 192.843 200.939 194.373Z" fill="white"/>
<path d="M214.354 190.866C214.354 189.925 214.295 188.966 214.177 187.99H216.216C216.3 188.444 216.359 189.05 216.392 189.806H216.443C216.846 189.167 217.412 188.646 218.142 188.242C218.872 187.838 219.715 187.637 220.672 187.637C221.762 187.637 222.651 187.868 223.339 188.33C224.027 188.793 224.53 189.427 224.849 190.235H224.9C225.336 189.428 225.932 188.793 226.687 188.33C227.441 187.868 228.347 187.637 229.404 187.637C230.462 187.637 231.343 187.868 232.047 188.33C232.752 188.793 233.272 189.399 233.608 190.147C233.943 190.895 234.111 191.715 234.111 192.606V200.831H231.972V192.909C231.972 191.917 231.733 191.084 231.254 190.412C230.776 189.739 230.008 189.402 228.952 189.402C228.18 189.402 227.518 189.604 226.964 190.008C226.41 190.411 225.991 190.95 225.705 191.622C225.419 192.295 225.278 193.018 225.278 193.792V200.831H223.139V192.859C223.139 191.884 222.895 191.063 222.409 190.399C221.922 189.735 221.158 189.402 220.118 189.402C219.011 189.402 218.13 189.793 217.476 190.576C216.822 191.358 216.495 192.32 216.495 193.464V200.831H214.356V190.865L214.354 190.866Z" fill="white"/>
<path d="M276.858 199.166L277.991 197.753C278.711 198.325 279.459 198.737 280.23 198.989C281.002 199.242 281.875 199.368 282.848 199.368C284.056 199.368 285.033 199.086 285.78 198.522C286.527 197.959 286.9 197.139 286.9 196.063C286.9 195.306 286.724 194.692 286.372 194.221C286.019 193.75 285.532 193.372 284.912 193.085C284.291 192.799 283.468 192.522 282.445 192.252C280.785 191.815 279.543 191.222 278.721 190.474C277.898 189.726 277.487 188.678 277.487 187.333C277.487 185.837 278.045 184.667 279.161 183.826C280.277 182.985 281.698 182.564 283.427 182.564C284.518 182.564 285.504 182.707 286.384 182.993C287.265 183.28 288.083 183.699 288.838 184.255L287.831 185.718C287.126 185.264 286.426 184.928 285.73 184.709C285.033 184.49 284.266 184.381 283.427 184.381C282.303 184.381 281.397 184.621 280.709 185.1C280.021 185.579 279.677 186.273 279.677 187.181C279.677 188.09 279.992 188.776 280.62 189.238C281.25 189.701 282.276 190.117 283.704 190.487C285.499 190.958 286.858 191.597 287.781 192.404C288.703 193.212 289.165 194.406 289.165 195.987C289.165 197.131 288.884 198.097 288.322 198.888C287.76 199.679 287.002 200.272 286.045 200.667C285.089 201.061 284.015 201.259 282.824 201.259C280.508 201.259 278.52 200.562 276.859 199.166L276.858 199.166Z" fill="white"/>
<path d="M291.077 197.324C291.077 195.659 291.677 194.503 292.877 193.856C294.076 193.208 295.884 192.884 298.301 192.884C298.888 192.884 299.332 192.893 299.635 192.91V192.178C299.635 191.22 299.374 190.505 298.854 190.034C298.334 189.563 297.538 189.328 296.463 189.328C295.104 189.328 293.821 189.69 292.612 190.413L291.858 188.975C293.301 188.083 294.878 187.637 296.589 187.637C298.385 187.637 299.697 188.058 300.528 188.899C301.359 189.74 301.774 191.018 301.774 192.734V197.982C301.774 198.907 301.833 199.857 301.95 200.833H299.987C299.87 200.093 299.811 199.513 299.811 199.092H299.735C299.266 199.782 298.674 200.303 297.961 200.656C297.248 201.009 296.329 201.185 295.206 201.185C293.963 201.185 292.965 200.853 292.21 200.189C291.455 199.524 291.078 198.57 291.078 197.325L291.077 197.324ZM299.635 196.088V194.423L298.502 194.398C297.244 194.398 296.241 194.482 295.495 194.65C294.748 194.819 294.194 195.104 293.834 195.508C293.473 195.912 293.292 196.476 293.292 197.198C293.292 197.939 293.51 198.507 293.946 198.901C294.383 199.297 294.986 199.494 295.758 199.494C296.563 199.494 297.26 199.322 297.848 198.977C298.435 198.632 298.88 198.199 299.181 197.678C299.484 197.157 299.635 196.627 299.635 196.088Z" fill="white"/>
<path d="M307.94 182.969V200.831H305.801V182.969H307.94Z" fill="white"/>
<path d="M322.89 195.18H313.377C313.461 196.492 313.855 197.535 314.56 198.309C315.265 199.082 316.272 199.469 317.58 199.469C318.352 199.469 319.044 199.364 319.657 199.154C320.269 198.943 320.886 198.629 321.507 198.208L322.463 199.595C321.742 200.116 320.974 200.512 320.16 200.781C319.346 201.05 318.445 201.184 317.454 201.184C315.491 201.184 313.96 200.562 312.861 199.317C311.762 198.072 311.212 196.415 311.212 194.347C311.212 193.019 311.447 191.85 311.918 190.84C312.387 189.831 313.071 189.045 313.969 188.482C314.866 187.919 315.945 187.637 317.203 187.637C319.065 187.637 320.488 188.242 321.47 189.453C322.451 190.664 322.941 192.271 322.941 194.272C322.941 194.676 322.924 194.978 322.891 195.18H322.89ZM320.852 193.515C320.818 192.237 320.491 191.211 319.87 190.437C319.249 189.663 318.352 189.277 317.177 189.277C315.986 189.277 315.063 189.676 314.408 190.475C313.754 191.273 313.402 192.287 313.351 193.515H320.851L320.852 193.515Z" fill="white"/>
<path d="M333.938 188.999L332.981 190.336C331.992 189.647 330.918 189.302 329.76 189.302C328.954 189.302 328.326 189.458 327.873 189.769C327.419 190.081 327.193 190.522 327.193 191.094C327.193 191.514 327.284 191.859 327.47 192.128C327.653 192.397 327.964 192.624 328.4 192.809C328.837 192.994 329.474 193.187 330.313 193.389C331.622 193.709 332.591 194.176 333.22 194.79C333.849 195.404 334.164 196.207 334.164 197.199C334.164 198.461 333.694 199.441 332.754 200.139C331.814 200.837 330.656 201.185 329.282 201.185C327.435 201.185 325.892 200.69 324.651 199.697L325.632 198.36C326.202 198.747 326.764 199.033 327.318 199.218C327.873 199.403 328.501 199.495 329.206 199.495C330.062 199.495 330.737 199.31 331.232 198.939C331.727 198.57 331.975 198.04 331.975 197.35C331.975 196.895 331.882 196.53 331.699 196.252C331.513 195.975 331.207 195.743 330.78 195.558C330.352 195.374 329.709 195.172 328.854 194.953C327.528 194.617 326.564 194.162 325.959 193.591C325.355 193.019 325.053 192.229 325.053 191.22C325.053 190.126 325.476 189.256 326.323 188.608C327.171 187.961 328.29 187.637 329.684 187.637C331.328 187.637 332.745 188.092 333.937 189L333.938 188.999Z" fill="white"/>
<path d="M344.659 182.944L344.182 184.483C343.645 184.366 343.124 184.315 342.621 184.332C341.044 184.349 340.255 185.214 340.255 186.93V187.99H343.477V189.63H340.255V200.832H338.116V189.63H335.875V188.268L338.116 187.991V186.881C338.116 185.518 338.476 184.472 339.199 183.74C339.919 183.008 340.994 182.634 342.42 182.617C343.243 182.617 343.989 182.727 344.66 182.945L344.659 182.944Z" fill="white"/>
<path d="M357.772 194.373C357.772 195.702 357.516 196.883 357.004 197.918C356.493 198.952 355.755 199.755 354.79 200.327C353.825 200.899 352.671 201.185 351.33 201.185C350.004 201.185 348.854 200.895 347.882 200.315C346.909 199.734 346.17 198.932 345.667 197.905C345.163 196.88 344.912 195.702 344.912 194.373C344.912 192.321 345.474 190.686 346.599 189.466C347.722 188.246 349.299 187.637 351.331 187.637C352.689 187.637 353.851 187.919 354.816 188.482C355.781 189.046 356.515 189.831 357.018 190.84C357.521 191.85 357.773 193.027 357.773 194.373H357.772ZM347.125 194.373C347.125 195.904 347.473 197.136 348.17 198.069C348.867 199.002 349.92 199.47 351.329 199.47C352.754 199.47 353.82 199.003 354.525 198.069C355.23 197.136 355.582 195.904 355.582 194.373C355.582 192.842 355.23 191.623 354.525 190.715C353.82 189.806 352.754 189.352 351.329 189.352C349.904 189.352 348.845 189.806 348.158 190.715C347.47 191.623 347.125 192.843 347.125 194.373Z" fill="white"/>
<path d="M360.54 190.866C360.54 189.925 360.481 188.966 360.363 187.99H362.402C362.486 188.562 362.545 189.243 362.578 190.033H362.629C363.367 188.436 364.709 187.637 366.656 187.637C366.79 187.637 367.034 187.662 367.386 187.713L367.261 189.555C367.093 189.521 366.833 189.504 366.48 189.504C365.256 189.504 364.316 189.917 363.662 190.74C363.008 191.565 362.681 192.633 362.681 193.944V200.832H360.542V190.866H360.54Z" fill="white"/>
<path d="M374.508 187.637C375.314 187.637 376.082 187.759 376.811 188.003C377.541 188.246 378.19 188.588 378.761 189.024L377.905 190.513C376.932 189.789 375.8 189.427 374.508 189.427C373.132 189.427 372.091 189.878 371.387 190.777C370.682 191.676 370.33 192.883 370.33 194.397C370.33 195.877 370.682 197.076 371.387 197.992C372.092 198.909 373.123 199.368 374.483 199.368C375.641 199.368 376.79 199.006 377.931 198.282L378.71 199.796C377.436 200.722 375.975 201.184 374.331 201.184C372.888 201.184 371.704 200.86 370.782 200.213C369.859 199.566 369.193 198.729 368.782 197.703C368.37 196.677 368.165 195.575 368.165 194.398C368.165 192.346 368.727 190.706 369.851 189.479C370.975 188.251 372.528 187.637 374.508 187.637H374.508Z" fill="white"/>
<path d="M391.95 195.18H382.437C382.521 196.492 382.915 197.535 383.62 198.309C384.325 199.082 385.332 199.469 386.64 199.469C387.412 199.469 388.104 199.364 388.717 199.154C389.329 198.943 389.946 198.629 390.567 198.208L391.523 199.595C390.802 200.116 390.034 200.512 389.22 200.781C388.406 201.05 387.505 201.184 386.514 201.184C384.551 201.184 383.02 200.562 381.921 199.317C380.822 198.072 380.272 196.415 380.272 194.347C380.272 193.019 380.507 191.85 380.978 190.84C381.447 189.831 382.131 189.045 383.029 188.482C383.926 187.919 385.005 187.637 386.263 187.637C388.126 187.637 389.548 188.242 390.53 189.453C391.512 190.664 392.001 192.271 392.001 194.272C392.001 194.676 391.984 194.978 391.951 195.18H391.95ZM389.912 193.515C389.878 192.237 389.551 191.211 388.93 190.437C388.309 189.663 387.412 189.277 386.237 189.277C385.046 189.277 384.123 189.676 383.469 190.475C382.814 191.273 382.462 192.287 382.411 193.515H389.911L389.912 193.515Z" fill="white"/>
</g>
<defs>
<clipPath id="clip0_594_732">
<rect width="310" height="110.956" fill="white" transform="translate(82 92.0215)"/>
</clipPath>
</defs>
</svg>
