<?xml version="1.0" encoding="UTF-8"?> <svg xmlns="http://www.w3.org/2000/svg" width="996" height="222" viewBox="0 0 996 222" fill="none"><mask id="mask0_2310_6787" style="mask-type:luminance" maskUnits="userSpaceOnUse" x="0" y="0" width="996" height="222"><path d="M996 0.799805H0V221.2H996V0.799805Z" fill="white"></path></mask><g mask="url(#mask0_2310_6787)"><mask id="mask1_2310_6787" style="mask-type:luminance" maskUnits="userSpaceOnUse" x="0" y="0" width="996" height="222"><path d="M996 0.799805H0V221.2H996V0.799805Z" fill="white"></path></mask><g mask="url(#mask1_2310_6787)"><path d="M149.889 143.22C134.859 159.01 114.569 168.01 92.7693 168.55C92.0793 168.57 91.3893 168.58 90.6993 168.58C69.6593 168.58 49.7693 160.63 34.4693 146.08C1.85926 115.04 0.579258 63.2697 31.6193 30.6597C62.6493 -1.95031 114.429 -3.23031 147.039 27.8097C154.939 35.3297 161.139 44.1497 165.429 53.8297C169.719 63.5097 172.099 74.0297 172.369 84.9297C172.899 106.72 164.919 127.43 149.889 143.22Z" fill="white"></path></g><mask id="mask2_2310_6787" style="mask-type:luminance" maskUnits="userSpaceOnUse" x="0" y="0" width="996" height="222"><path d="M996 0.799805H0V221.2H996V0.799805Z" fill="white"></path></mask><g mask="url(#mask2_2310_6787)"><path d="M129.91 39.8398H51.75V51.9998H129.91V39.8398Z" fill="#3BB54A"></path></g><mask id="mask3_2310_6787" style="mask-type:luminance" maskUnits="userSpaceOnUse" x="0" y="0" width="996" height="222"><path d="M996 0.799805H0V221.2H996V0.799805Z" fill="white"></path></mask><g mask="url(#mask3_2310_6787)"><path d="M129.91 66.3296H51.75V78.4896H129.91V66.3296Z" fill="#3BB54A"></path></g><mask id="mask4_2310_6787" style="mask-type:luminance" maskUnits="userSpaceOnUse" x="0" y="0" width="996" height="222"><path d="M996 0.799805H0V221.2H996V0.799805Z" fill="white"></path></mask><g mask="url(#mask4_2310_6787)"><path d="M129.91 88.48H51.75V136.25H129.91V88.48Z" fill="#3BB54A"></path></g><mask id="mask5_2310_6787" style="mask-type:luminance" maskUnits="userSpaceOnUse" x="0" y="0" width="996" height="222"><path d="M996 0.799805H0V221.2H996V0.799805Z" fill="white"></path></mask><g mask="url(#mask5_2310_6787)"><path d="M87.8195 128.15L73.1895 116.66L77.2094 111.54L86.8995 119.15L103.979 98.9697L108.949 103.18L87.8195 128.15Z" fill="white"></path></g><mask id="mask6_2310_6787" style="mask-type:luminance" maskUnits="userSpaceOnUse" x="0" y="0" width="996" height="222"><path d="M996 0.799805H0V221.2H996V0.799805Z" fill="white"></path></mask><g mask="url(#mask6_2310_6787)"><g opacity="0.5"><mask id="mask7_2310_6787" style="mask-type:luminance" maskUnits="userSpaceOnUse" x="11" y="8" width="159" height="158"><path d="M169.579 8.13965H11.9492V165.77H169.579V8.13965Z" fill="white"></path></mask><g mask="url(#mask7_2310_6787)"><path d="M169.56 84.9896C169.3 74.4596 167 64.2996 162.85 54.9596C158.71 45.6196 152.72 37.0896 145.1 29.8296C113.61 -0.140408 63.6098 1.0996 33.6498 32.5896C3.67978 64.0796 4.90978 114.08 36.3998 144.05C51.1698 158.11 70.3798 165.78 90.6998 165.78C91.3698 165.78 92.0298 165.77 92.6998 165.75C113.75 165.23 133.34 156.54 147.86 141.29C162.37 126.04 170.08 106.04 169.56 84.9896ZM92.4398 155.27C91.8598 155.28 91.2798 155.29 90.6998 155.29C73.1098 155.29 56.3898 148.6 43.6298 136.45C30.4298 123.89 22.9098 106.9 22.4498 88.6296C21.9998 70.3496 28.6698 53.0196 41.2398 39.8196C54.2498 26.1496 71.8398 18.6196 90.7698 18.6196C108.4 18.6196 125.13 25.2996 137.88 37.4196C151.1 50.0096 158.64 66.9896 159.09 85.2496C159.54 103.5 152.86 120.83 140.27 134.06C127.68 147.29 110.69 154.82 92.4398 155.27Z" fill="#989899"></path></g></g></g><mask id="mask8_2310_6787" style="mask-type:luminance" maskUnits="userSpaceOnUse" x="0" y="0" width="996" height="222"><path d="M996 0.799805H0V221.2H996V0.799805Z" fill="white"></path></mask><g mask="url(#mask8_2310_6787)"><path d="M226.559 192.02C226.559 198.31 224.239 204.61 219.559 209.53C209.889 219.69 193.809 220.09 183.649 210.42L152.359 180.64C149.749 178.16 149.649 174.03 152.129 171.42L153.319 170.17L138.369 155.94L133.809 151.6C142.989 144.88 150.899 136.63 157.459 126.75L162.019 131.09L176.969 145.32L178.159 144.07C180.639 141.46 184.769 141.36 187.379 143.84L218.669 173.62C223.919 178.61 226.559 185.31 226.559 192.02Z" fill="#3BB54A"></path></g><mask id="mask9_2310_6787" style="mask-type:luminance" maskUnits="userSpaceOnUse" x="0" y="0" width="996" height="222"><path d="M996 0.799805H0V221.2H996V0.799805Z" fill="white"></path></mask><g mask="url(#mask9_2310_6787)"><path d="M158.978 128.27C152.418 138.15 144.508 146.4 135.328 153.12L139.888 157.46C144.578 154.22 148.958 150.46 152.978 146.24C156.998 142.02 160.528 137.45 163.538 132.61L158.978 128.27Z" fill="#3E7539"></path></g><mask id="mask10_2310_6787" style="mask-type:luminance" maskUnits="userSpaceOnUse" x="0" y="0" width="996" height="222"><path d="M996 0.799805H0V221.2H996V0.799805Z" fill="white"></path></mask><g mask="url(#mask10_2310_6787)"><path d="M90.7006 168.58C69.6606 168.58 49.7706 160.64 34.4706 146.08C1.86064 115.05 0.580635 63.2696 31.6106 30.6596C62.6406 -1.95039 114.421 -3.23041 147.031 27.7996C162.831 42.8296 171.821 63.1196 172.361 84.9196C172.901 106.72 164.921 127.42 149.881 143.22C134.851 159.02 114.561 168.01 92.7606 168.55C92.0806 168.57 91.3906 168.58 90.7006 168.58ZM90.7706 14.0196C71.4806 14.0196 52.2306 21.5996 37.9106 36.6396C10.1806 65.7796 11.3206 112.05 40.4606 139.78C54.5706 153.21 73.0806 160.35 92.5606 159.87C112.041 159.39 130.171 151.35 143.601 137.23C157.031 123.11 164.171 104.61 163.691 85.1296C163.211 65.6496 155.171 47.5196 141.051 34.0896C126.951 20.6796 108.841 14.0196 90.7706 14.0196Z" fill="#3BB54A"></path></g><mask id="mask11_2310_6787" style="mask-type:luminance" maskUnits="userSpaceOnUse" x="0" y="0" width="996" height="222"><path d="M996 0.799805H0V221.2H996V0.799805Z" fill="white"></path></mask><g mask="url(#mask11_2310_6787)"><path d="M255.34 20.5799C260.92 22.3499 265.77 25.4699 269.88 29.9499C274 34.4199 276.41 40.4199 277.12 47.9499H254.53C253.2 40.3299 248.33 36.5299 239.92 36.5299C236.02 36.5299 232.9 37.3299 230.55 38.9199C228.21 40.5099 227.03 42.7299 227.03 45.5599C227.03 47.9499 227.87 49.7699 229.55 51.0099C231.23 52.2499 233.84 53.2699 237.39 54.0699L250.01 56.9899C258.96 58.9399 265.73 61.8799 270.34 65.8199C274.94 69.7599 277.25 75.4099 277.25 82.7599C277.25 88.6999 275.7 93.8799 272.6 98.2999C269.5 102.73 265.14 106.14 259.52 108.53C253.89 110.92 247.32 112.12 239.79 112.12C232.71 112.12 226.22 110.97 220.33 108.66C214.44 106.36 209.59 102.84 205.78 98.0999C201.97 93.3599 199.71 87.3999 199 80.2299H221.45C222.16 84.2199 224.18 87.3399 227.5 89.5999C230.82 91.8599 235.14 92.9899 240.45 92.9899C244.61 92.9899 247.78 92.2799 249.95 90.8599C252.12 89.4399 253.2 87.4999 253.2 85.0099C253.2 81.1099 250.01 78.5499 243.63 77.2999L228.75 73.9799C219.8 72.0299 213.21 68.9099 208.95 64.6099C204.7 60.3199 202.58 54.5799 202.58 47.4099C202.58 41.4799 204.08 36.2699 207.09 31.7999C210.1 27.3299 214.31 23.8999 219.71 21.5099C225.11 19.1199 231.36 17.9199 238.45 17.9199C244.14 17.9199 249.76 18.8099 255.34 20.5799Z" fill="#3BB54A"></path></g><mask id="mask12_2310_6787" style="mask-type:luminance" maskUnits="userSpaceOnUse" x="0" y="0" width="996" height="222"><path d="M996 0.799805H0V221.2H996V0.799805Z" fill="white"></path></mask><g mask="url(#mask12_2310_6787)"><path d="M333.19 110.25V106C327.79 110.17 321.9 112.25 315.52 112.25C310.11 112.25 305.33 111.05 301.17 108.66C297.01 106.27 293.77 102.84 291.47 98.3696C289.17 93.8996 288.02 88.6496 288.02 82.6296V45.8296H309.54V79.3096C309.54 83.7396 310.6 87.0996 312.73 89.4096C314.86 91.7096 317.74 92.8596 321.37 92.8596C325.44 92.8596 329.39 90.7296 333.19 86.4796V45.8296H354.71V110.26H333.19V110.25Z" fill="#3BB54A"></path></g><mask id="mask13_2310_6787" style="mask-type:luminance" maskUnits="userSpaceOnUse" x="0" y="0" width="996" height="222"><path d="M996 0.799805H0V221.2H996V0.799805Z" fill="white"></path></mask><g mask="url(#mask13_2310_6787)"><path d="M400.018 67.54C396.478 68.92 393.418 70.89 390.848 73.45V110.25H369.328V45.81H390.848V52.72C397.048 47.41 404.438 44.75 413.028 44.75V65.21C407.898 65.4 403.558 66.17 400.018 67.54Z" fill="#3BB54A"></path></g><mask id="mask14_2310_6787" style="mask-type:luminance" maskUnits="userSpaceOnUse" x="0" y="0" width="996" height="222"><path d="M996 0.799805H0V221.2H996V0.799805Z" fill="white"></path></mask><g mask="url(#mask14_2310_6787)"><path d="M445.72 110.25L417.82 45.8198H440.54L455.95 83.0198L471.36 45.8198H494.07L466.18 110.25H445.72Z" fill="#3BB54A"></path></g><mask id="mask15_2310_6787" style="mask-type:luminance" maskUnits="userSpaceOnUse" x="0" y="0" width="996" height="222"><path d="M996 0.799805H0V221.2H996V0.799805Z" fill="white"></path></mask><g mask="url(#mask15_2310_6787)"><path d="M561.299 83.9496L561.429 84.3496H515.459C516.339 87.4496 517.999 89.9496 520.439 91.8596C522.879 93.7696 526.039 94.7196 529.939 94.7196C532.149 94.7196 534.099 94.3196 535.789 93.5196C537.469 92.7196 538.799 91.5696 539.779 90.0696H561.039C559.529 96.7096 555.919 101.98 550.209 105.88C544.499 109.78 537.649 111.73 529.679 111.73C522.769 111.73 516.639 110.29 511.279 107.41C505.919 104.53 501.779 100.53 498.859 95.3896C495.939 90.2596 494.469 84.4496 494.469 77.9896C494.469 71.5296 495.889 65.7496 498.719 60.6496C501.559 55.5596 505.579 51.5696 510.809 48.6896C516.039 45.8096 522.019 44.3696 528.749 44.3696C534.949 44.3696 540.549 45.7196 545.559 48.4196C550.559 51.1196 554.509 54.9096 557.379 59.7796C560.259 64.6496 561.699 70.2796 561.699 76.6496C561.699 79.9196 561.569 82.3596 561.299 83.9496ZM519.919 63.8196C517.569 65.7296 515.999 68.3596 515.199 71.7296H541.499C540.879 68.2696 539.459 65.6196 537.249 63.7596C535.029 61.8996 532.199 60.9696 528.749 60.9696C525.209 60.9696 522.259 61.9196 519.919 63.8196Z" fill="#3BB54A"></path></g><mask id="mask16_2310_6787" style="mask-type:luminance" maskUnits="userSpaceOnUse" x="0" y="0" width="996" height="222"><path d="M996 0.799805H0V221.2H996V0.799805Z" fill="white"></path></mask><g mask="url(#mask16_2310_6787)"><path d="M581.49 140.01L593.72 111.05L563.16 45.8198H586.01L604.48 85.5398L621.22 45.8198H643.8L604.08 140.01H581.49Z" fill="#3BB54A"></path></g><mask id="mask17_2310_6787" style="mask-type:luminance" maskUnits="userSpaceOnUse" x="0" y="0" width="996" height="222"><path d="M996 0.799805H0V221.2H996V0.799805Z" fill="white"></path></mask><g mask="url(#mask17_2310_6787)"><path d="M681.268 110.79L642.078 19.9097H666.788L692.558 81.1597L718.328 19.9097H743.038L703.848 110.79H681.268Z" fill="#29AAE1"></path></g><mask id="mask18_2310_6787" style="mask-type:luminance" maskUnits="userSpaceOnUse" x="0" y="0" width="996" height="222"><path d="M996 0.799805H0V221.2H996V0.799805Z" fill="white"></path></mask><g mask="url(#mask18_2310_6787)"><path d="M753.869 32.2697C751.429 29.9697 750.219 27.0897 750.219 23.6297C750.219 20.1797 751.439 17.2797 753.869 14.9297C756.309 12.5797 759.289 11.4097 762.839 11.4097C766.299 11.4097 769.259 12.5797 771.739 14.9297C774.219 17.2797 775.459 20.1797 775.459 23.6297C775.459 27.0897 774.219 29.9597 771.739 32.2697C769.259 34.5697 766.289 35.7197 762.839 35.7197C759.289 35.7197 756.309 34.5697 753.869 32.2697ZM752.209 45.8197H773.729V110.25H752.209V45.8197Z" fill="#29AAE1"></path></g><mask id="mask19_2310_6787" style="mask-type:luminance" maskUnits="userSpaceOnUse" x="0" y="0" width="996" height="222"><path d="M996 0.799805H0V221.2H996V0.799805Z" fill="white"></path></mask><g mask="url(#mask19_2310_6787)"><path d="M807.411 94.3098C809.581 95.6398 812.391 96.2998 815.851 96.2998C818.691 96.2998 820.921 95.8998 822.561 95.1098C824.201 94.3098 825.021 93.2099 825.021 91.7899C825.021 90.7299 824.491 89.7998 823.421 88.9998C822.361 88.1998 820.811 87.6298 818.771 87.2698L805.751 85.0099C799.901 84.0399 795.301 81.9299 791.941 78.6999C788.571 75.4699 786.891 71.1098 786.891 65.6098C786.891 58.8798 789.501 53.6098 794.731 49.7998C799.951 45.9898 806.901 44.0898 815.591 44.0898C823.561 44.0898 830.471 45.8598 836.311 49.3998C842.161 52.9398 845.301 58.6099 845.741 66.4099H826.611C826.431 64.0199 825.351 62.2198 823.361 61.0298C821.371 59.8298 818.821 59.2398 815.721 59.2398C813.061 59.2398 811.051 59.6799 809.671 60.5699C808.301 61.4599 807.611 62.5599 807.611 63.8899C807.611 66.4599 809.821 68.1398 814.251 68.9398L826.341 70.9298C839.711 73.4098 846.401 79.9198 846.401 90.4598C846.401 97.5498 843.591 102.95 837.971 106.67C832.341 110.39 825.101 112.25 816.251 112.25C807.221 112.25 799.801 110.26 794.001 106.27C788.201 102.29 784.991 96.2199 784.371 88.0699L803.501 88.1999C803.931 90.9499 805.241 92.9798 807.411 94.3098Z" fill="#29AAE1"></path></g><mask id="mask20_2310_6787" style="mask-type:luminance" maskUnits="userSpaceOnUse" x="0" y="0" width="996" height="222"><path d="M996 0.799805H0V221.2H996V0.799805Z" fill="white"></path></mask><g mask="url(#mask20_2310_6787)"><path d="M899.41 111.58C896.57 112.02 893.48 112.24 890.11 112.24C884.97 112.24 880.46 111.04 876.56 108.65C872.66 106.26 869.63 102.89 867.46 98.5499C865.29 94.2099 864.21 89.1599 864.21 83.3999V64.2699H851.59V45.7999H864.21V23.8999H885.73V45.8199H907.65V64.2899H885.73V82.7599C885.73 85.9499 886.59 88.3599 888.32 89.9999C890.05 91.6399 892.55 92.4599 895.83 92.4599C897.95 92.4599 901.76 91.9299 907.25 90.8699L909.64 109.07C905.66 110.3 902.25 111.14 899.41 111.58Z" fill="#29AAE1"></path></g><mask id="mask21_2310_6787" style="mask-type:luminance" maskUnits="userSpaceOnUse" x="0" y="0" width="996" height="222"><path d="M996 0.799805H0V221.2H996V0.799805Z" fill="white"></path></mask><g mask="url(#mask21_2310_6787)"><path d="M965.042 110.25V106.66C959.902 109.94 954.022 111.58 947.372 111.58C941.612 111.58 936.282 110.1 931.362 107.13C926.452 104.16 922.552 100.11 919.672 94.9696C916.792 89.8296 915.352 84.1596 915.352 77.9596C915.352 71.6696 916.792 65.9596 919.672 60.8196C922.552 55.6796 926.452 51.6496 931.362 48.7296C936.282 45.8096 941.612 44.3496 947.372 44.3496C954.022 44.3496 959.902 45.9896 965.042 49.2696V45.8096H986.562V110.24H965.042V110.25ZM965.042 87.9396V68.0096C961.592 63.9396 957.112 61.8996 951.622 61.8996C947.282 61.8996 943.672 63.4496 940.792 66.5496C937.912 69.6496 936.472 73.4596 936.472 77.9696C936.472 82.4896 937.912 86.2696 940.792 89.3296C943.672 92.3796 947.282 93.9096 951.622 93.9096C957.112 93.9096 961.592 91.9196 965.042 87.9396Z" fill="#29AAE1"></path></g><mask id="mask22_2310_6787" style="mask-type:luminance" maskUnits="userSpaceOnUse" x="0" y="0" width="996" height="222"><path d="M996 0.799805H0V221.2H996V0.799805Z" fill="white"></path></mask><g mask="url(#mask22_2310_6787)"><path d="M773.641 141.52C775.701 142.75 777.321 144.52 778.501 146.84C779.681 149.16 780.261 151.87 780.261 154.98C780.261 158.09 779.671 160.8 778.501 163.09C777.321 165.39 775.701 167.15 773.641 168.38C771.581 169.61 769.221 170.22 766.581 170.22C763.681 170.22 761.231 169.49 759.231 168.02C757.221 166.55 755.841 164.63 755.081 162.24V169.84H750.141V129.68H755.081V147.65C755.841 145.26 757.221 143.34 759.231 141.87C761.241 140.4 763.691 139.67 766.581 139.67C769.231 139.68 771.581 140.29 773.641 141.52ZM759.971 145.4C758.411 146.29 757.201 147.56 756.331 149.23C755.461 150.9 755.031 152.81 755.031 154.98C755.031 157.15 755.461 159.06 756.331 160.71C757.201 162.36 758.411 163.63 759.971 164.54C761.521 165.44 763.261 165.9 765.181 165.9C768.261 165.9 770.711 164.93 772.531 163C774.361 161.06 775.271 158.4 775.271 154.99C775.271 151.59 774.361 148.92 772.531 146.98C770.701 145.04 768.251 144.08 765.181 144.08C763.261 144.07 761.521 144.52 759.971 145.4Z" fill="#939292"></path></g><mask id="mask23_2310_6787" style="mask-type:luminance" maskUnits="userSpaceOnUse" x="0" y="0" width="996" height="222"><path d="M996 0.799805H0V221.2H996V0.799805Z" fill="white"></path></mask><g mask="url(#mask23_2310_6787)"><path d="M788.79 140.06L798.45 163.5L807.4 140.06H812.88L795.19 183.97H789.6L795.79 169.36L783.25 140.06H788.79Z" fill="#939292"></path></g><mask id="mask24_2310_6787" style="mask-type:luminance" maskUnits="userSpaceOnUse" x="0" y="0" width="996" height="222"><path d="M996 0.799805H0V221.2H996V0.799805Z" fill="white"></path></mask><g mask="url(#mask24_2310_6787)"><path d="M853.209 161.01H836.379L833.179 169.86H827.859L842.029 132.3H847.619L861.729 169.86H856.409L853.209 161.01ZM851.799 157.15L844.799 137.83L837.799 157.15H851.799Z" fill="#939292"></path></g><mask id="mask25_2310_6787" style="mask-type:luminance" maskUnits="userSpaceOnUse" x="0" y="0" width="996" height="222"><path d="M996 0.799805H0V221.2H996V0.799805Z" fill="white"></path></mask><g mask="url(#mask25_2310_6787)"><path d="M875.949 141.28C877.829 140.14 880.069 139.57 882.679 139.57V144.94H881.159C878.369 144.94 876.089 145.66 874.319 147.08C872.549 148.51 871.659 150.87 871.659 154.16V169.85H866.719V140.05H871.659V146.08C872.639 144.02 874.069 142.42 875.949 141.28Z" fill="#939292"></path></g><mask id="mask26_2310_6787" style="mask-type:luminance" maskUnits="userSpaceOnUse" x="0" y="0" width="996" height="222"><path d="M996 0.799805H0V221.2H996V0.799805Z" fill="white"></path></mask><g mask="url(#mask26_2310_6787)"><path d="M907.132 141.85C909.142 143.3 910.542 145.23 911.342 147.66V129.69H916.282V169.85H911.342V162.25C910.542 164.67 909.142 166.61 907.132 168.06C905.122 169.51 902.672 170.23 899.782 170.23C897.142 170.23 894.792 169.62 892.722 168.38C890.662 167.15 889.042 165.39 887.862 163.09C886.682 160.79 886.102 158.09 886.102 154.98C886.102 151.87 886.692 149.15 887.862 146.84C889.042 144.52 890.662 142.75 892.722 141.52C894.782 140.29 897.132 139.67 899.782 139.67C902.672 139.68 905.122 140.4 907.132 141.85ZM893.892 146.98C892.062 148.92 891.152 151.58 891.152 154.99C891.152 158.39 892.062 161.06 893.892 163C895.722 164.94 898.152 165.9 901.192 165.9C903.142 165.9 904.892 165.45 906.432 164.54C907.972 163.64 909.172 162.36 910.042 160.71C910.912 159.06 911.342 157.15 911.342 154.98C911.342 152.81 910.912 150.89 910.042 149.23C909.172 147.57 907.972 146.29 906.432 145.4C904.892 144.51 903.152 144.07 901.192 144.07C898.152 144.07 895.722 145.04 893.892 146.98Z" fill="#939292"></path></g><mask id="mask27_2310_6787" style="mask-type:luminance" maskUnits="userSpaceOnUse" x="0" y="0" width="996" height="222"><path d="M996 0.799805H0V221.2H996V0.799805Z" fill="white"></path></mask><g mask="url(#mask27_2310_6787)"><path d="M924.201 129.12C924.811 128.56 925.631 128.28 926.641 128.28C927.651 128.28 928.471 128.56 929.081 129.12C929.691 129.68 930.001 130.41 930.001 131.32C930.001 132.23 929.691 132.96 929.081 133.52C928.461 134.08 927.651 134.36 926.641 134.36C925.631 134.36 924.811 134.08 924.201 133.52C923.581 132.96 923.281 132.23 923.281 131.32C923.281 130.41 923.591 129.68 924.201 129.12ZM929.091 169.85H924.151V140.05H929.091V169.85Z" fill="#939292"></path></g><mask id="mask28_2310_6787" style="mask-type:luminance" maskUnits="userSpaceOnUse" x="0" y="0" width="996" height="222"><path d="M996 0.799805H0V221.2H996V0.799805Z" fill="white"></path></mask><g mask="url(#mask28_2310_6787)"><path d="M946.242 141.28C948.122 140.14 950.362 139.57 952.972 139.57V144.94H951.452C948.662 144.94 946.382 145.66 944.612 147.08C942.842 148.51 941.952 150.87 941.952 154.16V169.85H937.012V140.05H941.952V146.08C942.932 144.02 944.362 142.42 946.242 141.28Z" fill="#939292"></path></g><mask id="mask29_2310_6787" style="mask-type:luminance" maskUnits="userSpaceOnUse" x="0" y="0" width="996" height="222"><path d="M996 0.799805H0V221.2H996V0.799805Z" fill="white"></path></mask><g mask="url(#mask29_2310_6787)"><path d="M977.421 141.85C979.431 143.3 980.831 145.23 981.631 147.66V140.06H986.571V169.86H981.631V162.26C980.831 164.68 979.431 166.62 977.421 168.07C975.411 169.52 972.961 170.24 970.071 170.24C967.431 170.24 965.081 169.63 963.011 168.39C960.951 167.16 959.331 165.4 958.151 163.1C956.971 160.8 956.391 158.1 956.391 154.99C956.391 151.88 956.981 149.16 958.151 146.85C959.331 144.53 960.951 142.76 963.011 141.53C965.071 140.3 967.421 139.68 970.071 139.68C972.961 139.68 975.411 140.4 977.421 141.85ZM964.181 146.98C962.351 148.92 961.441 151.58 961.441 154.99C961.441 158.39 962.351 161.06 964.181 163C966.011 164.94 968.441 165.9 971.481 165.9C973.431 165.9 975.181 165.45 976.721 164.54C978.261 163.64 979.461 162.36 980.331 160.71C981.201 159.06 981.631 157.15 981.631 154.98C981.631 152.81 981.201 150.89 980.331 149.23C979.461 147.57 978.261 146.29 976.721 145.4C975.181 144.51 973.441 144.07 971.481 144.07C968.441 144.07 966.001 145.04 964.181 146.98Z" fill="#939292"></path></g></g></svg> 