<?xml version="1.0" encoding="UTF-8" standalone="no"?>
<!DOCTYPE svg PUBLIC "-//W3C//DTD SVG 1.1//EN" "http://www.w3.org/Graphics/SVG/1.1/DTD/svg11.dtd">
<svg xmlns:xl="http://www.w3.org/1999/xlink" version="1.1" xmlns="http://www.w3.org/2000/svg" xmlns:dc="http://purl.org/dc/elements/1.1/" viewBox="0 0 700 700" width="700" height="700">
  <defs/>
  <g id="Lienzo_1" stroke-dasharray="none" stroke="none" fill="none" fill-opacity="1" stroke-opacity="1">
    <title>Lienzo 1</title>
    <g id="Lienzo_1_Capa_1">
      <title>Capa 1</title>
      <g id="Group_2">
        <g id="Graphic_4">
          <path d="M 310.6 7.1 C 309.6 7.7 305.3 8.4 301 8.5 C 296.7 8.7 292.3 9.3 291.1 9.9 C 290 10.5 286.5 11 283.3 11 C 279.8 11.1 276.7 11.6 275.6 12.5 C 274.5 13.3 271.8 14 269.5 14 C 267.2 14 264.5 14.7 263.4 15.5 C 262.4 16.3 259.9 17 258 17 C 256.1 17 253.6 17.7 252.6 18.5 C 251.5 19.3 249.6 20 248.4 20 C 247.2 20 244.9 20.7 243.4 21.5 C 241.8 22.3 239.5 23 238.3 23 C 237.1 23 235.8 23.4 235.5 24 C 235.2 24.5 233.6 25 232.1 25 C 230.5 25 228.7 25.7 228 26.5 C 227.3 27.3 225.5 28 224 28 C 222.5 28 220.7 28.7 220 29.5 C 219.3 30.3 218.2 31 217.5 31 C 216.7 31 214.9 31.6 213.3 32.4 C 211.8 33.2 208.9 34.5 207 35.3 C 205.1 36.2 201 38 198 39.3 C 195 40.7 191.8 42.1 191 42.4 C 190.2 42.8 188.2 43.9 186.5 45 C 184.9 46.1 182.9 47.2 182.3 47.5 C 181.6 47.8 180.4 48.2 179.8 48.5 C 179.1 48.8 176.3 50.4 173.5 52 C 170.8 53.7 167.5 55.5 166.3 56 C 165 56.5 164 57.4 164 57.9 C 164 58.5 162.3 59.7 160.3 60.7 C 156.1 62.6 147.9 68 146.9 69.4 C 146.5 69.9 144.4 71.4 142.2 72.9 C 127 82.9 92.8 115.3 78.9 133 C 66.8 148.3 62 154.8 62 155.8 C 62 156.3 60.8 158 59.3 159.6 C 57.8 161.2 55.7 164.1 54.8 166 C 53.8 167.9 52.1 170.8 51.1 172.5 C 47.8 177.6 46.6 179.5 42.8 187 C 40.8 190.9 38.7 194.7 38.2 195.3 C 37.7 196 37 197.7 36.7 199.1 C 36.3 200.5 34.9 203.3 33.5 205.4 C 32.1 207.4 31 209.9 31 210.9 C 31 211.9 30.3 213.3 29.5 214 C 28.7 214.7 28 216.2 28 217.4 C 28 218.6 27.6 220 27.1 220.5 C 26.6 221.1 25.2 224.6 24 228.3 C 22.7 232 21.3 235.3 20.9 235.6 C 20.4 235.9 20 237.4 20 238.9 C 20 240.4 19.3 242.5 18.5 243.6 C 17.7 244.6 17 246.7 17 248.1 C 17 249.5 16.3 251.5 15.5 252.6 C 14.7 253.6 14 256.1 14 258 C 14 259.9 13.3 262.4 12.5 263.4 C 11.7 264.5 11 267.3 11 269.6 C 11 272 10.6 274.2 10 274.5 C 9.5 274.8 9 277 9 279.3 C 8.9 281.6 8.3 285.3 7.5 287.5 C 6.7 289.7 6 293.8 6 296.7 C 6 299.6 5.3 304.1 4.4 306.7 C 1.9 313.8 2 388.6 4.4 394.2 C 5.3 396.3 6 400.7 6 404 C 6 407.4 6.5 411 7 412 C 8 413.9 9.6 422.1 10.7 431 C 11 433.5 11.9 436.4 12.6 437.5 C 13.4 438.6 14 440.8 14 442.5 C 14 444.2 14.7 446.5 15.5 447.6 C 16.3 448.6 17 450.8 17 452.5 C 17 454.1 17.7 456.4 18.5 457.4 C 19.3 458.5 20 460.5 20 461.9 C 20 463.3 20.7 465.4 21.5 466.4 C 22.3 467.5 23 469.4 23 470.6 C 23 471.9 23.5 473.2 24 473.5 C 24.6 473.8 25 475.2 25 476.4 C 25 477.7 25.7 479.3 26.5 480 C 27.3 480.7 28 482 28 482.9 C 28 483.9 28.7 485.5 29.5 486.6 C 30.3 487.6 31 489.5 31 490.8 C 31 492 31.7 493.3 32.5 493.6 C 33.3 494 34 494.8 34 495.5 C 34 496.2 34.7 498.1 35.5 499.7 C 36.3 501.2 38.3 505.4 40 509 C 41.7 512.6 43.5 516.2 44 517 C 44.5 517.8 45.1 519.2 45.5 520 C 46.5 522.4 49.8 527.7 61.7 545.5 C 69.1 556.6 70.4 558.4 81.7 572.7 C 88.1 580.9 106 599.6 117 609.6 C 126.1 617.9 150.1 635.8 159.7 641.4 C 162.5 643.1 169.3 647.2 174.7 650.5 C 183.3 655.7 203.6 666.1 214 670.7 C 215.9 671.6 218.2 672.6 219 673 C 219.9 673.4 222 674.1 223.8 674.4 C 225.5 674.8 227.2 675.6 227.5 676.1 C 227.9 676.6 229.1 677 230.4 677 C 231.6 677 233.5 677.7 234.6 678.5 C 235.6 679.3 237.7 680 239.1 680 C 240.5 680 242.5 680.7 243.6 681.5 C 244.6 682.3 246.9 683 248.6 683 C 250.2 683 252.5 683.7 253.6 684.5 C 254.6 685.3 257.1 686 259.1 686 C 261 686 263.5 686.7 264.6 687.5 C 265.6 688.3 268.3 689 270.4 689 C 272.6 689 275.7 689.4 277.4 689.9 C 282.6 691.5 292.9 693.1 304.4 694 C 310.4 694.5 315.8 695.4 316.3 695.9 C 317.8 697.4 374.2 697.4 375.7 695.9 C 376.2 695.4 381.6 694.5 387.6 694 C 393.6 693.6 400.3 692.7 402.5 692.1 C 404.7 691.5 408.4 691 410.7 691 C 413 691 415.2 690.5 415.5 690 C 415.8 689.4 418.5 689 421.3 689 C 424.3 689 427.3 688.3 428.4 687.5 C 429.5 686.7 432 686 434 686 C 436 686 438.5 685.3 439.6 684.5 C 440.6 683.7 442.9 683 444.5 683 C 446.2 683 448.4 682.3 449.4 681.5 C 450.5 680.7 452.4 680 453.7 680 C 455 680 456.8 679.6 457.8 679 C 460.2 677.6 474 672.8 477.2 672.3 C 478.7 672 480.5 671.2 481.1 670.4 C 481.7 669.6 483.3 669 484.5 669 C 485.7 669 487.3 668.3 488 667.5 C 488.7 666.7 490 666 491 666 C 492 666 493.3 665.3 494 664.5 C 494.7 663.7 495.7 663 496.4 663 C 497 663 499.7 661.9 502.5 660.6 C 505.2 659.3 508.2 657.9 509 657.6 C 509.8 657.2 511.9 656.1 513.5 655 C 515.2 653.9 517.4 652.6 518.5 652 C 519.6 651.4 521.9 650.1 523.5 649 C 525.2 647.9 527.5 646.6 528.7 646.1 C 529.8 645.6 531.1 644.6 531.5 644 C 531.9 643.3 533.4 642.3 534.9 641.7 C 538.3 640.2 550.5 631.6 563.3 621.6 C 579.3 609.2 609.8 578 621.6 562 C 632.1 547.8 636.2 541.6 637.3 538.7 C 637.6 537.8 638.4 537 638.9 537 C 639.5 537 640.9 535.1 642 532.7 C 643.1 530.4 644.9 527.1 646 525.5 C 647.9 522.5 650.7 517.4 655.7 507.5 C 657.1 504.7 658.6 501.7 659.1 500.8 C 659.6 499.8 660 498.4 660 497.6 C 660 496.9 660.7 495.7 661.5 495 C 662.3 494.3 663 493 663 492 C 663 491 663.7 489.7 664.5 489 C 665.3 488.3 666 486.7 666 485.5 C 666 484.3 666.7 482.7 667.5 482 C 668.3 481.3 669 479.7 669 478.5 C 669 477.3 669.7 475.7 670.5 475 C 671.3 474.3 672 472.6 672 471.1 C 672 469.6 672.4 468 672.8 467.4 C 673.2 466.9 674.4 463.8 675.4 460.5 C 676.4 457.2 677.8 453.2 678.6 451.7 C 679.4 450.1 680 447.6 680 446.1 C 680 444.6 680.7 442.5 681.5 441.4 C 682.3 440.4 683 437.9 683 436 C 683 434.1 683.7 431.6 684.5 430.6 C 685.3 429.5 686 426.9 686 424.7 C 686 422.6 686.6 419.9 687.2 418.7 C 688.9 415.6 689.9 404.8 691.1 373.5 C 692.6 337.3 690.5 290.2 687.2 284.3 C 686.5 283.1 686 280.4 686 278.3 C 686 276.1 685.3 273.5 684.5 272.4 C 683.7 271.4 683 268.9 683 267 C 683 265.1 682.3 262.4 681.5 261 C 680.7 259.6 680 257.1 680 255.5 C 680 253.8 679.3 251.6 678.5 250.6 C 677.7 249.5 677 247.4 677 246 C 677 244.6 676.5 242.9 675.9 242.3 C 675.4 241.8 674.8 239.9 674.8 238.1 C 674.7 236.4 674.1 234.5 673.3 233.9 C 672.6 233.3 672 232 672 231.1 C 672 230.1 671.3 228.5 670.5 227.4 C 669.7 226.4 669 224.7 669 223.8 C 669 222.9 668.4 220.9 667.6 219.3 C 666.9 217.8 665.5 214.7 664.5 212.5 C 663.6 210.3 662.4 207.8 661.9 207 C 661.4 206.2 660.7 204.8 660.4 204 C 660.1 203.2 659.5 201.6 659 200.5 C 658.5 199.4 657.9 197.8 657.6 197 C 657.3 196.2 656.6 194.8 656.1 194 C 655.6 193.2 654.9 191.8 654.6 191 C 654.2 190.2 653.1 188.1 652.1 186.5 C 651 184.8 649.2 181.8 648 179.6 C 646.9 177.5 644.2 173.3 642.2 170.2 C 637.7 163.5 637.4 163 633.2 156.6 C 614.4 127.4 583.8 96 550.5 71.5 C 541.2 64.7 539.8 63.7 535.2 61.4 C 533.4 60.5 531.5 58.9 530.9 57.9 C 530.4 56.8 529.2 56 528.4 56 C 527.5 56 525.6 55.2 524.2 54.1 C 522.7 53.1 519.3 51 516.5 49.6 C 511.2 46.7 509.1 45.6 506.3 44 C 505.3 43.5 501.6 41.7 498 40 C 494.4 38.3 490.2 36.3 488.7 35.5 C 487.1 34.7 485.3 34 484.5 34 C 483.8 34 482.7 33.3 482 32.5 C 481.3 31.7 479.7 31 478.5 31 C 477.3 31 475.7 30.4 475.1 29.6 C 474.5 28.8 472.7 28 471.2 27.7 C 468.3 27.2 457.6 23.7 452.2 21.4 C 450.4 20.6 447.9 20 446.7 20 C 445.5 20 443.6 19.3 442.6 18.5 C 441.5 17.7 439 17 436.9 17 C 434.9 17 432.7 16.3 432 15.5 C 431.2 14.6 429 14 426.3 14 C 423.9 14 420.9 13.5 419.7 12.8 C 417.4 11.5 411.3 10.6 394 9 C 388.2 8.4 382.2 7.5 380.6 7 C 376.5 5.6 313.1 5.7 310.6 7.1 Z M 381.5 66.5 C 383.7 67.3 388.2 68 391.5 68 C 394.8 68 398.6 68.7 400 69.5 C 401.4 70.3 404.4 70.9 406.8 71 C 409.2 71 412.1 71.5 413.3 72.2 C 414.5 72.8 417.3 73.7 419.5 74.1 C 425.2 75.2 432.2 77.1 434.2 78.1 C 435.2 78.6 436.6 79 437.5 79 C 438.9 79 444 81 449.3 83.6 C 450.9 84.4 452.8 85 453.6 85 C 454.4 85 455.8 85.4 456.8 86 C 457.7 86.5 460.8 87.9 463.5 89 C 470 91.7 481 97.4 488.1 101.6 C 491.2 103.5 494.1 105 494.5 105 C 495 105 496.8 106.1 498.6 107.5 C 500.4 108.9 502.1 110 502.4 110 C 503 110 512.2 116.2 513 117.1 C 513.3 117.4 515.9 119.3 518.8 121.4 C 521.6 123.4 525 125.9 526.3 126.9 C 549.7 146.5 562.9 160.3 579.8 183.1 C 587.6 193.7 601 215.3 601 217.4 C 601 218.2 601.7 219.3 602.5 220 C 603.3 220.7 604 222 604 223 C 604 224 604.7 225.3 605.5 226 C 606.3 226.7 607 227.8 607 228.5 C 607 229.1 608.1 231.7 609.4 234.2 C 610.7 236.6 612.8 241.7 614 245.4 C 615.3 249 616.7 252.3 617.1 252.6 C 617.6 252.9 618 254.3 618 255.8 C 618 257.3 618.7 259.4 619.5 260.4 C 620.3 261.5 621 263.5 621 264.9 C 621 266.3 621.7 268.4 622.5 269.4 C 623.3 270.5 624 272.6 624 274.1 C 624 275.6 624.7 278.1 625.5 279.6 C 626.3 281.2 627 284 627 285.8 C 627 287.6 627.5 290 628 291.1 C 629.5 293.8 631 304.5 632 319.3 C 632.4 326.4 633.3 332.7 633.9 333.3 C 635.4 334.8 635.4 367.2 633.9 368.7 C 633.3 369.3 632.4 375.6 632 382.7 C 631 397.9 629.3 410.1 628 411.4 C 627.4 412 627 414 627 416 C 627 417.9 626.3 420.8 625.5 422.4 C 624.7 423.9 624 426.4 624 427.9 C 623.9 429.3 623.3 431.6 622.5 433 C 621.7 434.4 621 436.6 621 438 C 621 439.4 620.3 441.4 619.5 442.4 C 618.7 443.5 618 445.3 618 446.5 C 618 447.7 617.3 449.5 616.5 450.6 C 615.7 451.6 615 453.3 615 454.3 C 615 455.2 614.6 456.8 614.1 457.8 C 613.7 458.7 612.6 461.1 611.8 463 C 609 469.6 600 487.5 597 492.5 C 595.4 495.2 593.7 498.2 593.3 499 C 591.1 503.8 575.8 525.1 568 534.5 C 556 548.8 549.6 555.4 538 565.3 C 532.8 569.8 528.3 573.7 528 574 C 526.1 576.2 502.5 593 501.4 593 C 501.1 593 499.4 594 497.7 595.3 C 493.3 598.4 491.3 599.6 485.5 602.5 C 482.8 603.9 479.8 605.5 479 606 C 478.2 606.4 473.5 608.7 468.5 611 C 463.6 613.3 458.2 615.8 456.7 616.6 C 455.1 617.4 453.1 618 452.2 618 C 451.3 618 449.6 618.7 448.6 619.5 C 447.5 620.3 445.7 621 444.5 621 C 443.3 621 442 621.3 441.7 621.6 C 440.5 622.8 430.6 625.9 427.9 626 C 426.5 626 424.5 626.7 423.4 627.5 C 422.4 628.3 419.9 629 418 629 C 416.1 629 413.4 629.7 412 630.5 C 410.6 631.3 407.4 631.9 404.9 632 C 402.3 632 398.9 632.7 397.4 633.5 C 395.8 634.3 391.8 635 388.5 635 C 385.2 635 380.3 635.7 377.6 636.5 C 371.7 638.3 326.3 638.6 319 636.9 C 316.5 636.3 310.7 635.5 306 635.1 C 301.3 634.7 296.8 634 296 633.5 C 295.2 633 292 632.2 289 631.9 C 281.9 631 274 629.2 271.8 628 C 270.8 627.4 269.1 627 267.9 627 C 266.8 627 264.4 626.4 262.7 625.7 C 257.2 623.4 252.6 621.8 249.8 621.3 C 248.3 621 246.5 620.2 245.9 619.4 C 245.3 618.6 244 618 243 618 C 242 618 239.1 617.1 236.4 615.9 C 226.6 611.7 222.5 609.8 221 609 C 220.2 608.5 217.3 606.9 214.5 605.5 C 211.8 604.1 207.3 601.6 204.5 599.9 C 201.8 598.3 198.8 596.7 198 596.3 C 197.2 596 194.9 594.4 192.9 592.8 C 190.9 591.3 188.9 590 188.6 590 C 187.7 590 166.3 574 161 569.4 C 151.3 560.9 143.3 553 134.5 543.3 C 126.1 534 113 517.8 113 516.5 C 113 516.3 110.8 513 108.1 509.3 C 105.4 505.5 102 500.2 100.5 497.5 C 99.1 494.7 97 491.1 96 489.5 C 94.2 486.6 89.3 476.9 84.4 466.5 C 83.1 463.7 82 460.8 82 460 C 82 459.2 81.3 457.6 80.5 456.6 C 79.7 455.5 79 453.7 79 452.6 C 79 451.4 78.3 449.6 77.5 448.6 C 76.7 447.5 76 445.7 76 444.5 C 76 443.3 75.5 441.9 74.9 441.3 C 74.3 440.7 73.4 438.4 72.9 436.3 C 71.5 429.7 69.8 423.6 68.9 421.8 C 68.4 420.8 68 418.3 68 416.3 C 67.9 414.2 67.3 411.4 66.5 410 C 65.7 408.6 65.1 404.9 65 401.7 C 65 398 64.4 395 63.3 393.4 C 59.2 387 59.2 313.8 63.3 309.2 C 64.5 307.9 65 305.5 65 301.3 C 65 297.9 65.6 294 66.5 292.4 C 67.3 290.8 68 287.6 68 285.3 C 68 283 68.4 280.8 69 280.5 C 69.5 280.2 70 278.7 70 277.3 C 70 275.9 70.6 273.4 71.4 271.7 C 72.2 269.9 73 267.4 73.3 266 C 73.9 262.7 75.9 257.2 77.6 253.7 C 78.4 252.1 79 250 79 249 C 79 248.1 79.7 246.7 80.5 246 C 81.3 245.3 82 243.8 82 242.7 C 82 240 96.8 210.1 102.5 201.6 C 105 197.8 107 194.5 107 194.4 C 107 193.6 124.6 170.2 129.4 164.5 C 148.9 141.7 173.1 121.3 201 104.5 C 209.7 99.3 229.3 89.4 237.5 86.1 C 238.6 85.6 241.2 84.5 243.3 83.6 C 245.4 82.7 247.8 82 248.8 82 C 249.7 82 251.4 81.3 252.4 80.5 C 253.5 79.7 255.5 79 256.9 79 C 258.3 79 260.4 78.3 261.4 77.5 C 262.5 76.7 264.5 76 265.8 76 C 267.1 76 269 75.5 270.1 75 C 271.1 74.4 274.1 73.5 276.7 72.9 C 279.4 72.4 284.7 71.2 288.5 70.4 C 292.4 69.5 299.1 68.5 303.5 68.1 C 307.9 67.7 312.6 66.9 314 66.2 C 318 64.4 376.4 64.7 381.5 66.5 Z" fill="#e93a56"/>
        </g>
        <g id="Graphic_3">
          <path d="M 329.5 79 C 320.2 79.3 311.9 79.9 311.2 80.3 C 310.5 80.8 306.7 81.5 302.7 82 C 294 83 282.4 85.6 272.9 88.5 C 270.3 89.3 267.1 90 265.7 90 C 264.4 90 262.7 90.7 262 91.5 C 261.3 92.3 259.6 93 258.1 93 C 256.7 93 254.6 93.7 253.6 94.5 C 252.5 95.3 250.6 96 249.4 96 C 248.2 96 246.7 96.7 246 97.5 C 245.3 98.3 244.1 99 243.2 99 C 241.8 99 226.3 105.9 223 108 C 222.2 108.5 219.3 110.1 216.5 111.6 C 209.7 115.1 208 116.1 204.3 118.7 C 202.6 120 201 121 200.7 121 C 199.9 121 187.4 129.6 181.9 133.9 C 153.7 155.9 130.6 181.8 112.8 211.5 C 107.3 220.7 96 243.3 96 245.1 C 96 246 95.3 247.3 94.5 248 C 93.7 248.7 93 250.1 93 251 C 93 252 92.4 254.1 91.6 255.7 C 90.8 257.2 89 262.5 87.5 267.5 C 86.1 272.4 84.4 277.8 83.8 279.5 C 83.2 281.1 82.5 284.5 82.1 287 C 81.7 289.5 80.8 292.5 80.2 293.7 C 79.5 294.9 79 297.8 79 300.3 C 79 302.7 78.4 306.6 77.6 309.1 C 73.7 321.1 73.7 383.1 77.6 393.3 C 78.4 395.3 79 399.2 79 401.8 C 79.1 404.4 79.7 407.6 80.5 409 C 81.3 410.4 82 413.3 82 415.5 C 82 417.7 82.7 420.4 83.5 421.4 C 84.3 422.5 85 424.6 85 426.1 C 85 427.6 85.7 430.1 86.5 431.6 C 87.3 433.2 88 435.5 88 436.7 C 88 437.9 88.5 439.2 89 439.5 C 89.6 439.8 90 441 90 442 C 90 443.1 90.7 445.6 91.6 447.7 C 92.5 449.8 93.9 452.8 94.6 454.5 C 101.4 470.2 105.2 478.2 109 484.5 C 110.6 487.2 112.3 490.1 112.7 490.9 C 113 491.7 115.7 495.9 118.7 500.3 C 121.6 504.6 124 508.4 124 508.7 C 124 509 125.5 511 127.2 513 C 129 515.1 133.4 520.5 137 525.1 C 143.7 533.8 159.2 549.7 169.6 558.6 C 177.3 565.2 195.4 578.6 199.4 580.7 C 201.1 581.6 203.9 583.3 205.5 584.5 C 207.2 585.7 209.2 587 210 587.4 C 210.8 587.7 212.9 588.9 214.5 590 C 216.2 591.1 218.2 592.3 219 592.6 C 219.8 593 224.1 595 228.5 597.1 C 232.8 599.3 236.9 601 237.6 601 C 238.2 601 239.3 601.7 240 602.5 C 240.7 603.3 242.2 604 243.4 604 C 244.6 604 246.5 604.7 247.6 605.5 C 248.6 606.3 250.4 607 251.6 607 C 252.7 607 254 607.4 254.6 607.9 C 255.4 608.7 257.8 609.4 272 613.5 C 274.5 614.2 278.8 615.5 281.6 616.4 C 284.5 617.3 287.9 618 289.3 618 C 290.6 618 293.7 618.7 296 619.5 C 298.3 620.3 302.4 621 305 621 C 307.6 621 311.9 621.7 314.6 622.5 C 320.6 624.3 375.8 624.7 379.1 623 C 380.2 622.4 384.7 621.5 389.3 621 C 401 619.7 409.8 618.2 412 617 C 413 616.5 415.1 616 416.7 616 C 418.2 615.9 420.6 615.3 422 614.5 C 423.4 613.7 425.7 613.1 427.1 613 C 428.5 613 430.5 612.3 431.6 611.5 C 432.6 610.7 434.7 610 436.1 610 C 437.6 610 439.3 609.3 440 608.5 C 440.7 607.7 442.2 607 443.4 607 C 444.6 607 446.5 606.3 447.6 605.5 C 448.6 604.7 450.2 604 451 604 C 452.4 604 479.7 590.7 484.5 587.7 C 515.3 568.6 535.1 551.9 555.9 527.4 C 566.9 514.4 580.7 494.7 584.3 487 C 584.7 486.2 585.9 484.1 587 482.5 C 588.1 480.8 589.2 478.8 589.6 478 C 589.9 477.2 590.6 475.8 591.1 475 C 591.6 474.2 592.3 472.8 592.6 472 C 593.5 469.6 598 459.8 599.6 456.7 C 600.4 455.1 601 453 601 452 C 601 451.1 601.7 449.7 602.5 449 C 603.3 448.3 604 446.7 604 445.5 C 604 444.2 604.6 441.9 605.4 440.3 C 608.1 434.9 610.1 428.1 612 417.8 C 612.5 415.2 613.3 412.3 613.8 411.3 C 614.3 410.3 615 406.6 615.3 403.1 C 615.6 399.6 616.3 396.3 616.9 395.7 C 617.5 395.1 618 391.4 618 387.6 C 618 383.7 618.7 377.4 619.5 373.5 C 620.5 369 621 360.9 621 351 C 621 341.1 620.5 333 619.5 328.5 C 618.7 324.6 618 318.3 618 314.4 C 618 310.6 617.5 306.9 617 306.4 C 616.4 305.8 615.5 302.5 615 298.9 C 614.5 295.4 613.4 289.6 612.5 286 C 611.6 282.4 610.5 277.6 610.1 275.2 C 609.6 272.8 608.8 270.4 608.2 269.8 C 607.5 269.1 607 267.5 607 266 C 607 264.6 606.3 262.6 605.5 261.6 C 604.7 260.5 604 258.7 604 257.6 C 604 256.4 603.3 254.6 602.5 253.6 C 601.7 252.5 601 251.1 601 250.4 C 601 248.1 588.4 221.8 583.7 214 C 571.7 194.5 564.8 185.1 549.9 168.1 C 524.1 138.6 485.1 111.3 449 97.6 C 446.5 96.6 443.2 95.2 441.7 94.4 C 440.1 93.6 437.8 93 436.5 93 C 435.3 93 433.7 92.3 433 91.5 C 432.3 90.7 430.3 90 428.6 90 C 426.9 90 424.6 89.3 423.6 88.5 C 422.5 87.7 420.2 87 418.6 87 C 416.9 86.9 414.4 86.3 413 85.5 C 411.6 84.7 408.8 84.1 406.7 84 C 404.6 84 402 83.6 401 83 C 400 82.5 396.6 81.8 393.4 81.5 C 390.1 81.2 385.3 80.5 382.5 80 C 376.3 78.8 351.9 78.3 329.5 79 Z M 349.8 92 C 350 93.9 350.8 96.3 351.6 97.4 C 352.4 98.5 353 100.4 353 101.6 C 353 102.8 353.7 105.1 354.5 106.6 C 356 109.5 356 109.5 367.2 110 C 373.8 110.3 378.5 110.9 378.4 111.5 C 378.4 112.4 376.9 113.6 365.8 121.5 C 361.1 124.9 360 127.8 362.4 131.2 C 363.3 132.4 364 134.6 364 136 C 364 137.4 364.7 139.4 365.5 140.4 C 367.1 142.6 367.5 146.6 366.1 147.4 C 365.7 147.7 361.4 145 356.6 141.5 C 351.8 137.9 347.7 135 347.5 135 C 347.3 135 343.2 137.9 338.4 141.5 C 333.6 145.1 329.3 148 328.8 148 C 327.1 148 326.8 144.9 328.4 142.5 C 329.3 141.2 330 139 330 137.8 C 330 136.5 330.6 134.6 331.3 133.5 C 332.1 132.4 333 130.1 333.3 128.4 C 333.9 125.1 333.6 124.8 321.1 116 C 313.4 110.7 314.2 110 327.5 110 C 337.8 110 339 109.8 340 108.1 C 340.5 107 341 105.3 341 104.3 C 341 103.3 341.7 101.2 342.5 99.6 C 343.3 98.1 344 95.8 344 94.6 C 344 91.9 346.8 87.8 348.3 88.3 C 349 88.5 349.6 90.2 349.8 92 Z M 467.3 129 C 468.2 132 469.6 136.5 470.4 139 L 471.8 143.5 L 482.9 143.8 C 490.8 144 494 144.4 494 145.3 C 494 146 490.3 148.9 485.9 151.9 C 481.5 154.9 477.6 157.9 477.3 158.7 C 477 159.4 477.5 161.5 478.4 163.4 C 479.3 165.3 480 167.5 480 168.3 C 480 169.1 480.7 171.1 481.5 172.6 C 483.3 176.1 483.5 180 481.8 180 C 481.2 180 477.4 177.5 473.3 174.5 C 469.3 171.4 465.4 168.7 464.7 168.4 C 464 168.2 460.4 170.3 456.6 173.2 C 446.7 180.8 447.2 180.6 446 179.4 C 444.9 178.3 449.1 163.8 451.3 161.2 C 452.2 160.1 451.8 159.2 449.4 157.1 C 444.6 153 436 147 434.9 147 C 434.4 147 434 146.3 434 145.5 C 434 144.3 436.1 144 445.2 143.8 L 456.4 143.5 L 457.3 140 C 457.8 138.1 458.6 136.1 459.1 135.5 C 459.6 135 460 133.8 460 132.9 C 460 130.1 464 121.6 464.9 122.6 C 465.3 123.1 466.4 126 467.3 129 Z M 231.9 124.4 C 233.1 125.8 235.5 133.6 236.8 140 L 237.5 143.5 L 249.3 143.8 C 255.7 143.9 261 144.4 261 144.9 C 261 145.3 257.4 148.2 253.1 151.4 C 242.9 158.7 242.4 159.3 244.4 162.2 C 245.3 163.4 246 165.4 246 166.5 C 246 167.7 246.4 169 246.8 169.6 C 248.1 171 250.2 179.1 249.5 179.8 C 248.8 180.5 247.6 179.8 237.1 172.7 L 230.1 167.9 L 222.2 173.9 C 210.8 182.8 210 182.2 215 168 C 216.7 163.3 218 159.3 218 159 C 218 158.4 212.3 154.2 204.2 148.7 C 201.9 147.1 200.3 145.4 200.6 144.9 C 200.9 144.4 205.8 144 211.5 144 C 223.6 144 222.9 144.6 227.1 130.7 C 228.3 126.5 229.7 123 230.1 123 C 230.4 123 231.3 123.6 231.9 124.4 Z M 550.5 215.7 L 553.9 225.5 L 564.9 225.8 C 573.4 226 576 226.4 576 227.4 C 576 228.7 569.4 234.1 562.7 238.3 C 559 240.7 558.4 242.5 560.3 246.3 C 561.1 248.1 562.6 252.1 563.6 255.2 C 566.3 263.9 564.9 264.2 555.3 257 C 550.8 253.7 546.7 251 546.1 251 C 545.4 251 541.6 253.5 537.6 256.5 C 527.2 264.4 526.1 264 529.4 253.8 C 530.6 250.1 531.9 246.7 532.3 246.4 C 532.7 246 533 244.5 532.9 243.1 C 532.9 241 531.1 239.2 524.7 234.5 C 520.2 231.2 516.6 228 516.5 227.5 C 516.5 226.9 520.9 226.4 527.2 226.2 L 537.9 225.9 L 540 221.3 C 541.1 218.8 542 216.2 542 215.5 C 542 213.4 546 204.7 546.6 205.3 C 546.9 205.6 548.7 210.3 550.5 215.7 Z M 150.3 208.7 C 151.1 210.3 152.5 214.2 153.5 217.5 C 154.4 220.8 155.4 224.1 155.6 224.7 C 155.8 225.7 159.1 226 167.6 226 C 176.4 226 179.1 226.3 178.8 227.2 C 178.4 228.4 172.6 233.1 163.5 239.7 C 160.9 241.6 160.7 242 161.7 244.1 C 163.6 247.8 167 258.2 167 260.2 C 167 263.1 164.9 262.3 157.3 256.5 C 153.3 253.5 149.5 251 148.8 251 C 148.1 251.1 145.8 252.3 143.8 253.8 C 131.2 263 131 263.2 130.4 261.5 C 129.8 260 132.5 249.6 134 247.5 C 134.4 246.9 135 245.3 135.3 243.9 C 135.9 241.6 135.1 240.7 127.5 235.2 C 122.8 231.8 119 228.3 119 227.5 C 119 226.3 120.9 226 129.8 226 L 140.7 226 L 144 216 C 145.9 210.5 147.8 206 148.2 206 C 148.6 206 149.6 207.2 150.3 208.7 Z M 440.1 232.2 C 440.2 232.9 440.1 238.1 440 243.6 C 439.9 249.6 440.2 254 440.8 254.4 C 441.4 254.7 442.8 257.1 444 259.8 C 447.4 267.1 451.6 275.9 454.5 282.2 C 458.8 291.2 459 291.1 438.3 290.8 L 420.5 290.5 L 417.3 285.6 C 413.3 279.5 408.7 274.6 403.5 271.1 C 391.8 263.3 372.8 257 360.9 257 L 355.3 257 L 355.7 262.2 C 356.2 268.5 356.7 270.3 357.8 269.6 C 358.9 269 374.6 271.5 380 273.3 C 389.6 276.4 394.6 279.5 401.8 286.7 C 405.7 290.7 409 294.5 409 295.2 C 409 295.9 409.6 297.7 410.4 299.2 C 411.9 302.1 413.8 316.5 415 334.5 C 415.8 346 417.1 355.3 419.6 365.7 C 420.4 369.1 421 373 421 374.4 C 421 375.7 421.5 377.2 422 377.5 C 422.6 377.8 423 378.9 423 379.9 C 423 382.4 426.6 390.5 430.5 396.5 C 432.2 399.3 440.5 408.4 448.8 416.9 C 459.5 427.7 464.7 433.8 466.6 437.5 C 469.1 442.7 469.1 443 467.5 446.3 C 465 451.6 461.8 454.1 452 458.3 C 446.6 460.6 438.7 463 436.5 463 C 435.4 463 432.7 463.7 430.5 464.5 C 428.3 465.3 424.6 465.9 422.2 466 C 419.8 466 417 466.5 416 467 C 414 468.1 397.7 469.7 377.5 470.9 L 366.5 471.5 L 366.8 478.1 C 367.3 488.2 364.3 493.4 355.1 498 C 342.9 504.1 327.4 493.9 327.6 480 C 327.6 477.5 328 474.5 328.4 473.3 C 329.2 471.2 329 471.1 321.4 470.8 L 313.5 470.5 L 313.2 464.5 C 313 461.2 313.6 454.3 314.5 449.2 C 316 441.1 316 439.7 314.8 438.2 C 312 435 305 423 305 421.7 C 305 420.9 307.5 417.5 310.5 414.1 L 316 407.9 L 309.5 400.7 C 305.9 396.7 302.6 392.4 302.3 391.1 C 301.8 388.9 302.8 382.9 306.2 369 C 306.8 366.5 307.6 362.5 308 360 C 308.4 357.5 309.2 354.2 309.9 352.7 C 310.5 351.1 311 348.6 311 347.1 C 311 345.6 311.7 342.9 312.5 341.2 C 313.5 339.4 313.8 337.1 313.4 335.5 C 312.6 332.4 310.6 332.7 310.2 336.1 C 310 337.4 309.2 339.9 308.4 341.7 C 307.6 343.4 307 345.8 307 346.9 C 307 348.1 306.6 349.8 306.1 350.8 C 305.6 351.7 304.5 355.2 303.5 358.5 C 302.6 361.8 301.2 366.1 300.5 368 C 298.8 372.7 292 393.7 292 394.4 C 292 394.7 294.3 397.5 297 400.6 C 299.8 403.7 302 406.7 302 407.2 C 302 407.8 300 410.5 297.5 413.3 C 293.2 418.3 292 421.3 293.9 422.4 C 294.4 422.7 296.9 426.6 299.5 431 C 303.7 438.2 304.1 439.3 303.2 442.2 C 301 449.3 299.2 455.7 298 460 C 295.4 469.6 295.7 469.4 288.7 468.7 C 285.3 468.4 280.5 467.7 278 467.1 C 272.9 466 264.6 464.3 258 463.1 C 247.3 461.1 234.2 455.1 229.9 450.2 C 223 442.5 225.2 437.8 244.8 418 C 258.9 403.8 268 392.6 268 389.6 C 268 388.9 268.7 387.7 269.5 387 C 270.3 386.3 271 384.6 271 383.1 C 271 381.6 271.5 379.9 272 379.4 C 273.8 377.6 277.8 355.1 279.1 339.5 C 279.6 332.9 280.5 326.2 281 324.6 C 281.6 323 282 317.8 282 313 C 282 302.3 284.7 295.4 291.8 287.8 C 298.2 281 303.7 277.3 312.8 274 C 319.5 271.6 332.3 269.2 335.6 269.8 C 337.8 270.2 339.1 267.1 338.8 262.3 L 338.5 257.5 L 332 257.6 C 325.6 257.8 316 259.6 309 262 C 303.7 263.8 295.1 268.2 293.9 269.7 C 293.2 270.4 292.2 271 291.5 271 C 289.9 271 279.7 281.8 277.6 285.7 C 276.7 287.5 275.1 289.4 274.1 290 C 271.2 291.5 239.5 291.3 238.2 289.7 C 237.5 288.9 238.1 286.6 240.4 281.9 C 242.1 278.3 245.2 271.6 247.3 266.9 C 249.4 262.3 251.8 257.3 252.6 255.8 C 253.6 254 254 249.9 254 242.7 C 254 235.2 254.4 232 255.3 231.7 C 255.9 231.4 297.8 231.1 348.3 231.1 C 421 231 440 231.3 440.1 232.2 Z M 581.2 333.2 L 584.6 343.5 L 595.3 343.8 C 602.9 344 606 344.4 606 345.3 C 606 346 602.4 349.2 597.9 352.4 C 588.9 358.9 589.2 358 592.5 369 C 594.8 376.2 595.4 380 594.5 380 C 594 380 589.9 377.3 585.4 374 L 577.1 367.9 L 572.8 370.7 C 570.4 372.2 566.6 375 564.2 376.7 C 559.4 380.3 558 380.7 558 378.5 C 558 376.7 561.7 365.2 563.1 362.7 C 564.7 359.7 563.4 357.7 556.8 353.2 C 543.7 344.3 543.7 344.1 558.2 343.8 L 569.4 343.5 L 570.2 339.5 C 570.7 337.3 571.5 335.1 572 334.6 C 572.6 334 573 332.8 573 331.8 C 573 329.7 576.1 323 577.1 323 C 577.4 323 579.3 327.6 581.2 333.2 Z M 121.4 329.6 C 122.4 332.3 123.7 336.5 124.4 339 L 125.5 343.5 L 136.5 344 C 142.9 344.3 147.5 344.9 147.4 345.5 C 147.4 346 145.5 347.8 143.2 349.5 C 141 351.1 137 354 134.5 355.8 C 131.2 358.2 130.2 359.5 130.9 360.3 C 133 362.9 137.9 380 136.5 380 C 135.2 380 131.4 377.6 125.1 372.8 C 121.6 370.2 118.3 368 117.9 368 C 117.4 368 114.3 370.2 111 372.8 C 104.6 378 100.3 380.6 99.5 379.8 C 99.2 379.6 100.4 375.1 102 370 C 103.7 364.9 105 360.1 105 359.4 C 105 358.7 101.4 355.5 97 352.3 C 92.6 349.1 89 346 89 345.3 C 89 344.3 91.7 344 99.3 344 L 109.6 344 L 111.3 341.1 C 112.2 339.5 113 337.3 113 336.2 C 113 335.1 113.6 332.7 114.4 330.9 C 115.1 329 116 326.7 116.4 325.7 C 117.4 322.7 119.4 324.3 121.4 329.6 Z M 550.5 450.7 L 553.8 460.5 L 563.8 461 C 569.3 461.3 574.2 461.9 574.7 462.3 C 575.1 462.8 574.4 464.1 573 465.2 C 571.6 466.3 569.6 467.9 568.5 468.8 C 567.4 469.8 564.8 471.6 562.8 472.9 C 560.7 474.1 559 475.6 559 476 C 559 476.5 560.3 481.1 562 486.2 C 563.7 491.5 564.6 495.8 564.1 496.3 C 563.3 497.1 558.2 494 549.3 487.3 L 546.2 484.9 L 537.9 491 C 532.6 494.8 529.3 496.7 528.7 496.1 C 527.7 495.1 529.3 488.4 532.5 479.8 L 533.9 476.2 L 526.2 470.4 C 518.7 464.8 517 463.2 517 461.8 C 517 461.4 521.8 460.9 527.7 460.8 L 538.4 460.5 L 541.2 452.5 C 544.7 442.5 545.9 439.6 546.6 440.3 C 546.9 440.6 548.6 445.2 550.5 450.7 Z M 150.3 443.7 C 151.1 445.3 152.5 449.2 153.5 452.5 C 154.4 455.8 155.4 459.1 155.6 459.7 C 155.8 460.6 158.9 461 166.4 461 C 176.6 461 178.6 461.5 177.2 463.6 C 176.1 465.1 164.7 473.6 162.8 474.3 C 160.9 475 160.3 478.5 161.9 479.5 C 162.4 479.8 163.1 481.5 163.5 483.3 C 163.9 485 164.9 488.4 165.7 490.8 C 168.3 497.9 166.4 497.9 157 490.9 C 151.4 486.8 148.2 485 147.4 485.6 C 134.7 494.9 131.5 496.9 130.7 496.1 C 130.2 495.6 131.2 491.2 132.9 485.9 C 134.6 480.7 136 476.2 136 475.9 C 136 475.6 133.8 473.9 131.2 472.2 C 124.4 467.8 119.4 463.3 120.4 462.3 C 120.8 461.9 125.4 461.3 130.5 461.2 C 136.1 461 140.3 460.3 140.8 459.7 C 141.7 458.4 142.8 455.6 145.6 446.7 C 146.6 443.6 147.8 441 148.2 441 C 148.6 441 149.6 442.2 150.3 443.7 Z M 468.6 533.8 L 471.6 543.5 L 482 544 C 487.7 544.3 492.5 544.9 492.6 545.5 C 492.8 546 489.3 549.2 484.9 552.4 C 478.3 557.2 476.9 558.7 477.4 560.4 C 477.7 561.6 478.6 565 479.6 568 C 481.9 575.6 482.4 579 481.3 579 C 480.7 579 476.8 576.5 472.6 573.5 C 468.4 570.5 464.7 568 464.4 568 C 464.1 568 460.2 570.5 455.8 573.6 C 450.4 577.3 447.4 578.8 446.7 578.1 C 445.8 577.2 447.4 570.9 450.7 563.1 C 452.4 559 452.1 558.6 442.1 551.5 C 438.2 548.7 435.2 546 435.3 545.5 C 435.5 544.9 440.3 544.3 446 544 L 456.3 543.5 L 459.6 534.3 C 463.2 524 463.9 522.6 464.9 523.5 C 465.2 523.9 466.9 528.5 468.6 533.8 Z M 234.2 531.1 C 235.6 534.6 236.9 538.4 236.9 539.5 C 237.1 543.3 239 544 248.5 544 C 259.8 544 261.4 544.8 256.9 548.3 C 243.2 558.9 242.9 559.2 243.5 560.8 C 245.8 566.4 248.9 577.4 248.4 578.2 C 247.6 579.5 246 578.8 238.2 573.1 C 234.3 570.3 230.9 568 230.5 568 C 230.1 568 226.7 570.3 222.8 573.1 C 211.8 581.1 211.1 580.9 214.6 570.5 C 218.4 559 218.2 558.2 209.5 552 C 205.3 549.1 202.1 546.2 202.3 545.6 C 202.5 544.9 206.4 544.5 212.5 544.4 L 222.2 544.3 L 224.1 540.4 C 225.1 538.3 225.9 535.9 226 535.1 C 226 532.3 229.5 524 230.5 524.3 C 231 524.5 232.7 527.5 234.2 531.1 Z M 349.5 558.7 C 349.9 560.3 350.8 563 351.6 564.8 C 352.4 566.6 353 569 353 570.1 C 353 571.2 354.1 573.2 355.4 574.4 C 357.4 576.4 358.5 576.8 363.1 576.5 C 370.3 576.1 377 577 377 578.4 C 377 579.8 370.2 585.6 364.8 588.9 C 360.6 591.4 359.9 594.5 362.5 599 C 363.3 600.4 363.9 602.7 364 604.2 C 364 605.7 364.4 607.1 364.9 607.4 C 366.2 608.2 366.9 613 365.8 613.6 C 365.3 613.9 364.1 613.5 363.2 612.7 C 362.3 611.9 358.4 609.1 354.5 606.5 C 346.6 601.1 348.6 600.8 336 609.4 C 332.1 612 328.7 614 328.4 613.7 C 327.9 613.2 329.9 606.3 332.1 600.5 C 334.8 593.4 334 591.5 326.7 586.6 C 320.8 582.6 316.3 578.3 317.3 577.4 C 317.6 577 322.6 576.5 328.2 576.3 C 334.4 576.1 339 575.4 339.6 574.7 C 340.3 574 341.8 570.1 343 566 C 346.1 555.7 348.4 553.2 349.5 558.7 Z" fill="#34abdc"/>
        </g>
      </g>
    </g>
  </g>
</svg>
